<mxfile host="app.diagrams.net" modified="2023-09-25T10:45:27.954Z" agent="Mozilla/5.0 (Windows NT 10.0; Win64; x64) AppleWebKit/537.36 (KHTML, like Gecko) Chrome/116.0.0.0 Safari/537.36" etag="WCSTaKFbzoXttEIDOEHP" version="21.8.2" type="device">
  <diagram name="Página-1" id="uHXRjpHagwl1-OwoEn1I">
    <mxGraphModel dx="1434" dy="782" grid="1" gridSize="10" guides="1" tooltips="1" connect="1" arrows="1" fold="1" page="1" pageScale="1" pageWidth="827" pageHeight="1169" math="0" shadow="0">
      <root>
        <mxCell id="0" />
        <mxCell id="1" parent="0" />
        <mxCell id="pdnahJnKSuB2NxpgCFoO-1" value="Inovaweek" style="swimlane;fontStyle=1;align=center;verticalAlign=top;childLayout=stackLayout;horizontal=1;startSize=26;horizontalStack=0;resizeParent=1;resizeParentMax=0;resizeLast=0;collapsible=1;marginBottom=0;whiteSpace=wrap;html=1;" parent="1" vertex="1">
          <mxGeometry x="80" y="105" width="160" height="120" as="geometry" />
        </mxCell>
        <mxCell id="pdnahJnKSuB2NxpgCFoO-2" value="+ dia: localDate&lt;br&gt;+ horario: localTime&lt;br&gt;+ estantes: List&amp;lt;Estande&amp;gt;" style="text;strokeColor=none;fillColor=none;align=left;verticalAlign=top;spacingLeft=4;spacingRight=4;overflow=hidden;rotatable=0;points=[[0,0.5],[1,0.5]];portConstraint=eastwest;whiteSpace=wrap;html=1;" parent="pdnahJnKSuB2NxpgCFoO-1" vertex="1">
          <mxGeometry y="26" width="160" height="94" as="geometry" />
        </mxCell>
        <mxCell id="pdnahJnKSuB2NxpgCFoO-3" value="" style="line;strokeWidth=1;fillColor=none;align=left;verticalAlign=middle;spacingTop=-1;spacingLeft=3;spacingRight=3;rotatable=0;labelPosition=right;points=[];portConstraint=eastwest;strokeColor=inherit;" parent="pdnahJnKSuB2NxpgCFoO-1" vertex="1">
          <mxGeometry y="120" width="160" as="geometry" />
        </mxCell>
        <mxCell id="pdnahJnKSuB2NxpgCFoO-5" value="Estande" style="swimlane;fontStyle=1;align=center;verticalAlign=top;childLayout=stackLayout;horizontal=1;startSize=26;horizontalStack=0;resizeParent=1;resizeParentMax=0;resizeLast=0;collapsible=1;marginBottom=0;whiteSpace=wrap;html=1;" parent="1" vertex="1">
          <mxGeometry x="334" y="110" width="160" height="110" as="geometry" />
        </mxCell>
        <mxCell id="pdnahJnKSuB2NxpgCFoO-6" value="- numero: int&lt;br&gt;- membros: Alunos&amp;lt;list&amp;gt;&lt;br&gt;- projeto: Projeto&lt;br&gt;- dia: localDate" style="text;strokeColor=none;fillColor=none;align=left;verticalAlign=top;spacingLeft=4;spacingRight=4;overflow=hidden;rotatable=0;points=[[0,0.5],[1,0.5]];portConstraint=eastwest;whiteSpace=wrap;html=1;" parent="pdnahJnKSuB2NxpgCFoO-5" vertex="1">
          <mxGeometry y="26" width="160" height="84" as="geometry" />
        </mxCell>
        <mxCell id="pdnahJnKSuB2NxpgCFoO-7" value="" style="line;strokeWidth=1;fillColor=none;align=left;verticalAlign=middle;spacingTop=-1;spacingLeft=3;spacingRight=3;rotatable=0;labelPosition=right;points=[];portConstraint=eastwest;strokeColor=inherit;" parent="pdnahJnKSuB2NxpgCFoO-5" vertex="1">
          <mxGeometry y="110" width="160" as="geometry" />
        </mxCell>
        <mxCell id="UYfBCfIZv0lYoZOQ-u8--18" value="Aluno" style="swimlane;fontStyle=1;align=center;verticalAlign=top;childLayout=stackLayout;horizontal=1;startSize=26;horizontalStack=0;resizeParent=1;resizeParentMax=0;resizeLast=0;collapsible=1;marginBottom=0;whiteSpace=wrap;html=1;" parent="1" vertex="1">
          <mxGeometry x="590" y="110" width="160" height="110" as="geometry" />
        </mxCell>
        <mxCell id="UYfBCfIZv0lYoZOQ-u8--19" value="-&amp;nbsp; matriculaAluno: Int&lt;br&gt;- nomeAluno: String&lt;br&gt;- emailAluno: String" style="text;strokeColor=none;fillColor=none;align=left;verticalAlign=top;spacingLeft=4;spacingRight=4;overflow=hidden;rotatable=0;points=[[0,0.5],[1,0.5]];portConstraint=eastwest;whiteSpace=wrap;html=1;" parent="UYfBCfIZv0lYoZOQ-u8--18" vertex="1">
          <mxGeometry y="26" width="160" height="84" as="geometry" />
        </mxCell>
        <mxCell id="UYfBCfIZv0lYoZOQ-u8--23" value="Professor" style="swimlane;fontStyle=1;align=center;verticalAlign=top;childLayout=stackLayout;horizontal=1;startSize=26;horizontalStack=0;resizeParent=1;resizeParentMax=0;resizeLast=0;collapsible=1;marginBottom=0;whiteSpace=wrap;html=1;" parent="1" vertex="1">
          <mxGeometry x="590" y="500" width="160" height="110" as="geometry" />
        </mxCell>
        <mxCell id="UYfBCfIZv0lYoZOQ-u8--24" value="- matriculaProf: Int&lt;br&gt;- nomeProf: String&lt;br&gt;- emailProf: String" style="text;strokeColor=none;fillColor=none;align=left;verticalAlign=top;spacingLeft=4;spacingRight=4;overflow=hidden;rotatable=0;points=[[0,0.5],[1,0.5]];portConstraint=eastwest;whiteSpace=wrap;html=1;" parent="UYfBCfIZv0lYoZOQ-u8--23" vertex="1">
          <mxGeometry y="26" width="160" height="84" as="geometry" />
        </mxCell>
        <mxCell id="UYfBCfIZv0lYoZOQ-u8--25" value="Projeto" style="swimlane;fontStyle=1;align=center;verticalAlign=top;childLayout=stackLayout;horizontal=1;startSize=26;horizontalStack=0;resizeParent=1;resizeParentMax=0;resizeLast=0;collapsible=1;marginBottom=0;whiteSpace=wrap;html=1;" parent="1" vertex="1">
          <mxGeometry x="80" y="360" width="160" height="110" as="geometry" />
        </mxCell>
        <mxCell id="UYfBCfIZv0lYoZOQ-u8--26" value="- titulo: String&lt;br&gt;- descrição: String" style="text;strokeColor=none;fillColor=none;align=left;verticalAlign=top;spacingLeft=4;spacingRight=4;overflow=hidden;rotatable=0;points=[[0,0.5],[1,0.5]];portConstraint=eastwest;whiteSpace=wrap;html=1;" parent="UYfBCfIZv0lYoZOQ-u8--25" vertex="1">
          <mxGeometry y="26" width="160" height="84" as="geometry" />
        </mxCell>
        <mxCell id="UYfBCfIZv0lYoZOQ-u8--27" value="Avaliação" style="swimlane;fontStyle=1;align=center;verticalAlign=top;childLayout=stackLayout;horizontal=1;startSize=26;horizontalStack=0;resizeParent=1;resizeParentMax=0;resizeLast=0;collapsible=1;marginBottom=0;whiteSpace=wrap;html=1;" parent="1" vertex="1">
          <mxGeometry x="540" y="300" width="260" height="130" as="geometry" />
        </mxCell>
        <mxCell id="UYfBCfIZv0lYoZOQ-u8--28" value="- avaliador: List&amp;lt;Aluno, Professor&amp;gt;&lt;br&gt;- inovacao: Int&lt;br&gt;- maturidade: Int&lt;br&gt;- atratividade: Int&lt;br&gt;- apresentação: Int&lt;br&gt;- potencial: Int" style="text;strokeColor=none;fillColor=none;align=left;verticalAlign=top;spacingLeft=4;spacingRight=4;overflow=hidden;rotatable=0;points=[[0,0.5],[1,0.5]];portConstraint=eastwest;whiteSpace=wrap;html=1;" parent="UYfBCfIZv0lYoZOQ-u8--27" vertex="1">
          <mxGeometry y="26" width="260" height="104" as="geometry" />
        </mxCell>
        <mxCell id="phCz-1oBKO3P8ABOs6JW-14" value="" style="endArrow=diamondThin;endFill=1;endSize=24;html=1;rounded=0;exitX=0.5;exitY=0;exitDx=0;exitDy=0;entryX=0.5;entryY=0;entryDx=0;entryDy=0;" edge="1" parent="UYfBCfIZv0lYoZOQ-u8--27" source="UYfBCfIZv0lYoZOQ-u8--23">
          <mxGeometry width="160" relative="1" as="geometry">
            <mxPoint x="131" y="50" as="sourcePoint" />
            <mxPoint x="129" y="130" as="targetPoint" />
          </mxGeometry>
        </mxCell>
        <mxCell id="phCz-1oBKO3P8ABOs6JW-4" style="edgeStyle=orthogonalEdgeStyle;rounded=0;orthogonalLoop=1;jettySize=auto;html=1;entryX=0.589;entryY=0.017;entryDx=0;entryDy=0;entryPerimeter=0;exitX=0.465;exitY=0;exitDx=0;exitDy=0;exitPerimeter=0;" edge="1" parent="1" source="pdnahJnKSuB2NxpgCFoO-7">
          <mxGeometry relative="1" as="geometry">
            <mxPoint x="435.76" y="280" as="sourcePoint" />
            <mxPoint x="240" y="421.8699999999999" as="targetPoint" />
            <Array as="points">
              <mxPoint x="408" y="422" />
            </Array>
          </mxGeometry>
        </mxCell>
        <mxCell id="phCz-1oBKO3P8ABOs6JW-5" value="Contém&lt;br&gt;1...3" style="edgeLabel;html=1;align=center;verticalAlign=middle;resizable=0;points=[];" vertex="1" connectable="0" parent="phCz-1oBKO3P8ABOs6JW-4">
          <mxGeometry x="0.4075" relative="1" as="geometry">
            <mxPoint x="1" y="-22" as="offset" />
          </mxGeometry>
        </mxCell>
        <mxCell id="phCz-1oBKO3P8ABOs6JW-9" style="edgeStyle=orthogonalEdgeStyle;rounded=0;orthogonalLoop=1;jettySize=auto;html=1;entryX=0;entryY=0.5;entryDx=0;entryDy=0;" edge="1" parent="1" source="pdnahJnKSuB2NxpgCFoO-2" target="pdnahJnKSuB2NxpgCFoO-6">
          <mxGeometry relative="1" as="geometry" />
        </mxCell>
        <mxCell id="phCz-1oBKO3P8ABOs6JW-10" value="Contém&lt;br&gt;0...N" style="edgeLabel;html=1;align=center;verticalAlign=middle;resizable=0;points=[];" vertex="1" connectable="0" parent="phCz-1oBKO3P8ABOs6JW-9">
          <mxGeometry x="-0.0957" y="-2" relative="1" as="geometry">
            <mxPoint y="-20" as="offset" />
          </mxGeometry>
        </mxCell>
        <mxCell id="phCz-1oBKO3P8ABOs6JW-11" style="edgeStyle=orthogonalEdgeStyle;rounded=0;orthogonalLoop=1;jettySize=auto;html=1;entryX=0;entryY=0.5;entryDx=0;entryDy=0;" edge="1" parent="1" source="pdnahJnKSuB2NxpgCFoO-6" target="UYfBCfIZv0lYoZOQ-u8--19">
          <mxGeometry relative="1" as="geometry" />
        </mxCell>
        <mxCell id="phCz-1oBKO3P8ABOs6JW-12" value="Contém&lt;br&gt;2...4" style="edgeLabel;html=1;align=center;verticalAlign=middle;resizable=0;points=[];" vertex="1" connectable="0" parent="phCz-1oBKO3P8ABOs6JW-11">
          <mxGeometry x="0.1667" y="2" relative="1" as="geometry">
            <mxPoint x="-10" y="-16" as="offset" />
          </mxGeometry>
        </mxCell>
        <mxCell id="phCz-1oBKO3P8ABOs6JW-13" value="" style="endArrow=diamondThin;endFill=1;endSize=24;html=1;rounded=0;exitX=0.513;exitY=0.996;exitDx=0;exitDy=0;exitPerimeter=0;entryX=0.5;entryY=0;entryDx=0;entryDy=0;" edge="1" parent="1" source="UYfBCfIZv0lYoZOQ-u8--19" target="UYfBCfIZv0lYoZOQ-u8--27">
          <mxGeometry width="160" relative="1" as="geometry">
            <mxPoint x="620" y="250" as="sourcePoint" />
            <mxPoint x="780" y="250" as="targetPoint" />
          </mxGeometry>
        </mxCell>
        <mxCell id="phCz-1oBKO3P8ABOs6JW-15" style="edgeStyle=orthogonalEdgeStyle;rounded=0;orthogonalLoop=1;jettySize=auto;html=1;entryX=1;entryY=0.786;entryDx=0;entryDy=0;entryPerimeter=0;" edge="1" parent="1" target="UYfBCfIZv0lYoZOQ-u8--26">
          <mxGeometry relative="1" as="geometry">
            <mxPoint x="540" y="360" as="sourcePoint" />
            <mxPoint x="265.56" y="541.98" as="targetPoint" />
            <Array as="points">
              <mxPoint x="430" y="364" />
              <mxPoint x="430" y="452" />
            </Array>
          </mxGeometry>
        </mxCell>
        <mxCell id="phCz-1oBKO3P8ABOs6JW-16" value="Contém&lt;br&gt;1...1" style="edgeLabel;html=1;align=center;verticalAlign=middle;resizable=0;points=[];" vertex="1" connectable="0" parent="phCz-1oBKO3P8ABOs6JW-15">
          <mxGeometry x="0.1531" y="2" relative="1" as="geometry">
            <mxPoint x="94" y="-114" as="offset" />
          </mxGeometry>
        </mxCell>
      </root>
    </mxGraphModel>
  </diagram>
</mxfile>
